Coordinates
version=1
nRows=29
nColumns=24
inDegrees=yes

Units are S.I. units (second, meters, Newtons, ...)
Angles are in degrees.

endheader
time	pelvis_tilt	pelvis_list	pelvis_rotation	pelvis_tx	pelvis_ty	pelvis_tz	hip_flexion_r	hip_adduction_r	hip_rotation_r	knee_angle_r	ankle_angle_r	subtalar_angle_r	mtp_angle_r	hip_flexion_l	hip_adduction_l	hip_rotation_l	knee_angle_l	ankle_angle_l	subtalar_angle_l	mtp_angle_l	lumbar_extension	lumbar_bending	lumbar_rotation
      1.32900000	     -5.16254480	      4.78322913	      0.63794725	      0.21551859	      0.99564353	      0.31989746	     23.00973018	     -6.24451219	     -2.18760999	    -67.53639450	     -6.96526157	     -9.46112552	      6.29854508	     11.76791229	      9.80361699	      4.42442284	     -7.94534224	     -2.19384921	    -13.57550209	     -0.10633108	      1.67334199	     -3.16524165	      4.07439829
      1.33316667	     -5.05661838	      4.68510609	      0.74725578	      0.22060338	      0.99635659	      0.31967343	     23.42738351	     -6.16462897	     -2.21730322	    -67.29554684	     -6.22619169	     -9.89987262	      5.67224211	     11.17760359	      9.72778333	      4.70882499	     -7.68307828	     -2.10957662	    -13.68259314	     -0.38081444	      1.52991841	     -3.06137272	      3.82648224
      1.33733333	     -5.00796924	      4.62468343	      0.82784172	      0.22562715	      0.99687325	      0.31946378	     23.92888551	     -6.12646555	     -2.20909399	    -67.05697867	     -5.39138501	    -10.10079472	      5.58433135	     10.69708085	      9.68318162	      4.85619963	     -7.50886586	     -1.89612914	    -13.63518005	     -0.41908246	      1.45520686	     -2.99137120	      3.81266785
      1.34150000	     -4.93999970	      4.53602891	      0.92449106	      0.23067191	      0.99744087	      0.31927541	     24.37456231	     -6.05465226	     -2.22609912	    -66.72945017	     -4.61789355	    -10.37340652	      5.50138583	     10.18516493	      9.60455627	      5.03553459	     -7.31466624	     -1.71995774	    -13.61022164	     -0.45486744	      1.36676180	     -2.90628505	      3.74858473
      1.34566667	     -4.82202222	      4.47537872	      0.99741362	      0.23571866	      0.99804956	      0.31910442	     24.76159833	     -6.00659034	     -2.22169326	    -66.35911806	     -3.92232104	    -10.79801945	      5.25946114	      9.59805038	      9.55080694	      5.22187619	     -7.07325615	     -1.58104856	    -13.62934304	     -0.56100941	      1.20379771	     -2.84364626	      3.56052119
      1.34983333	     -4.77086649	      4.37631143	      1.10315729	      0.24071505	      0.99853388	      0.31889144	     25.19971596	     -5.93125429	     -2.25565504	    -65.92827932	     -3.19697498	    -11.00852393	      5.17352249	      9.11747157	      9.45946819	      5.41691509	     -6.90009227	     -1.39816075	    -13.60178312	     -0.59868280	      1.11965787	     -2.72319874	      3.51704798
      1.35400000	     -4.68177088	      4.30027621	      1.18871766	      0.24571066	      0.99902275	      0.31871121	     25.59151943	     -5.87340793	     -2.27082444	    -65.46151968	     -2.48609306	    -11.28540485	      5.07712084	      8.58573617	      9.38527121	      5.59086317	     -6.70112509	     -1.22095116	    -13.57521191	     -0.64049177	      0.98697559	     -2.63430428	      3.43049973
      1.35816667	     -4.59512165	      4.21419688	      1.27504852	      0.25071404	      0.99951031	      0.31856854	     25.95984499	     -5.79408774	     -2.28196780	    -64.91940949	     -1.83941092	    -11.58855867	      4.94164280	      8.05900610	      9.29449361	      5.75674315	     -6.50675444	     -1.05011782	    -13.55011937	     -0.69921373	      0.87208264	     -2.56932353	      3.31011489
      1.36233333	     -4.51707397	      4.14248217	      1.36039097	      0.25568621	      0.99992042	      0.31838181	     26.33820669	     -5.74493229	     -2.30502589	    -64.35797907	     -1.19535485	    -11.83319115	      4.84123902	      7.54131087	      9.22024157	      5.92376282	     -6.30579183	     -0.86660677	    -13.50580066	     -0.74206048	      0.74365090	     -2.45851304	      3.22715572
      1.36650000	     -4.40463434	      4.07376179	      1.43020763	      0.26068289	      1.00037463	      0.31826019	     26.65649535	     -5.67753933	     -2.30509343	    -63.73872033	     -0.51900698	    -11.99649904	      0.24477958	      6.97540624	      9.14081566	      6.08129007	     -6.08432471	     -0.68723474	    -13.47442279	     -2.76656201	      0.59589621	     -2.39028402	      3.00738803
      1.37066667	     -4.35206137	      4.00043933	      1.52887378	      0.26562883	      1.00068430	      0.31809537	     27.02634286	     -5.62620815	     -2.34044273	    -63.07214931	      0.05905478	    -12.21330187	      0.24093383	      6.50808810	      9.06028521	      6.23788089	     -5.92846893	     -0.46714193	    -13.40502650	     -2.75706599	      0.50820142	     -2.31575540	      2.98632373
      1.37483333	     -4.26737580	      3.93180895	      1.60901913	      0.27058449	      1.00102764	      0.31796325	     27.34470660	     -5.56939782	     -2.35988449	    -62.35159776	      0.62005176	    -12.43055065	      0.23192019	      5.99616055	      8.97716110	      6.36302964	     -5.74587312	     -0.27342803	    -13.33202514	     -2.75013513	      0.38568615	     -2.24212090	      2.91886348
      1.37900000	     -4.18001691	      3.86292080	      1.68835991	      0.27553546	      1.00134117	      0.31784205	     27.64292724	     -5.51065201	     -2.38239160	    -61.58182743	      1.13644665	    -12.63324454	      0.21741834	      5.48300405	      8.89108874	      6.48397392	     -5.56452711	     -0.07696001	    -13.25962402	     -2.74434703	      0.25699270	     -2.16734529	      2.83589966
      1.38316667	     -4.11579075	      3.80070944	      1.76699681	      0.28047367	      1.00157329	      0.31771967	     27.95489059	     -5.46050968	     -2.40418749	    -60.77486689	      1.61121873	    -12.80083481	      0.20084379	      4.99883120	      8.81145164	      6.60360097	     -5.38945725	      0.12299170	    -13.18480586	     -2.73939544	      0.15208996	     -2.09715530	      2.75777888
      1.38733333	     -4.04399221	      3.75659321	      1.84558269	      0.28540440	      1.00179144	      0.31761128	     28.24244485	     -5.42739826	     -2.42353912	    -59.92328312	      2.05867339	    -12.96441638	      0.17647397	      4.50757742	      8.74859795	      6.71539557	     -5.21454762	      0.31804443	    -13.10866659	     -2.73577172	      0.04449888	     -2.05035730	      2.66372677
      1.39150000	     -3.97896910	      3.70486144	      1.92364199	      0.29032851	      1.00196117	      0.31750530	     28.52042154	     -5.38700067	     -2.45062773	    -59.02699094	      2.47155532	    -13.09958238	      0.14955222	      4.02837550	      8.67648876	      6.82193158	     -5.04636995	      0.51683161	    -13.03534293	     -2.73260363	     -0.06555886	     -1.99304535	      2.58137725
      1.39566667	     -3.92694252	      3.65143352	      2.00183089	      0.29524747	      1.00208413	      0.31740878	     28.79422584	     -5.34324389	     -2.48162158	    -58.08393349	      2.84188610	    -13.21332784	      0.12050476	      3.56462853	      8.60066179	      6.92636068	     -4.87906525	      0.71792689	    -12.96099143	     -2.72948598	     -0.16150932	     -1.93880324	      2.50156262
      1.39983333	     -3.84135693	      3.62610659	      2.06908650	      0.30017834	      1.00222047	      0.31731938	     29.01763086	     -5.32716680	     -2.50367013	    -57.10325440	      3.16434350	    -13.33308186	      0.06573907	      3.05764295	      8.55210991	      7.01093603	     -4.69759924	      0.91414895	    -12.87360453	     -2.72840883	     -0.28539680	     -1.90845619	      2.38286351
      1.40400000	     -3.81679465	      3.58297585	      2.15395735	      0.30507321	      1.00223972	      0.31722146	     29.28732651	     -5.29501683	     -2.53945642	    -56.07718116	      3.47701409	    -13.39696292	      0.03516867	      2.63552411	      8.48798005	      7.12791991	     -4.55297820	      1.10737562	    -12.81424496	     -2.72582094	     -0.34697195	     -1.85958175	      2.33305701
      1.40816667	     -3.76920589	      3.56160651	      2.22905008	      0.30997384	      1.00224775	      0.31712910	     29.51796426	     -5.28446028	     -2.56990795	    -55.01663452	      3.74854291	    -13.45748271	      0.00064656	      2.18285200	      8.44528334	      7.23085654	     -4.39642872	      1.29903684	    -12.75359352	     -2.72369907	     -0.42869592	     -1.83557872	      2.26091988
      1.41233333	     -3.71678413	      3.53726975	      2.30307483	      0.31488500	      1.00224071	      0.31705377	     29.72261220	     -5.26996952	     -2.61438606	    -53.91203605	      3.98612017	    -13.50738002	     -0.03882029	      1.72099929	      8.39669236	      7.32644725	     -4.23111143	      1.48908141	    -12.69609647	     -2.72198509	     -0.52306237	     -1.80913555	      2.17946702
      1.41650000	     -3.68799274	      3.52015672	      2.37457207	      0.31979063	      1.00215270	      0.31698265	     29.94038841	     -5.26553950	     -2.66649664	    -52.77814125	      4.18691259	    -13.54378427	     -0.08639723	      1.28706771	      8.35607271	      7.41031155	     -4.06851582	      1.67517779	    -12.64606387	     -2.72089266	     -0.60041148	     -1.80352778	      2.09151629
      1.42066667	     -3.66097097	      3.51273823	      2.44560364	      0.32468262	      1.00203489	      0.31690793	     30.14102820	     -5.26579103	     -2.70757209	    -51.60208247	      4.36167260	    -13.56832329	     -0.13015070	      0.86204689	      8.32736962	      7.50517365	     -3.92272913	      1.85878377	    -12.59841348	     -2.71947367	     -0.65554542	     -1.78455786	      2.01848523
      1.42483333	     -3.64578994	      3.50635584	      2.51751188	      0.32957822	      1.00187194	      0.31684741	     30.33650463	     -5.27084473	     -2.76998144	    -50.39087083	      4.50636710	    -13.58380115	     -0.18352231	      0.44705969	      8.29800572	      7.58645537	     -3.76813209	      2.03742864	    -12.55758773	     -2.71939974	     -0.71920219	     -1.79351797	      1.93069445
      1.42900000	     -3.63864430	      3.50199357	      2.58432803	      0.33446955	      1.00165545	      0.31678994	     30.52376073	     -5.27480316	     -2.83187890	    -49.14423794	      4.63068170	    -13.58421996	     -0.23376698	      0.04407796	      8.27170590	      7.67122125	     -3.62139896	      2.21797006	    -12.52066766	     -2.71933899	     -0.76204472	     -1.78967639	      1.85739384
      1.43316667	     -3.63489126	      3.49736038	      2.64998946	      0.33936036	      1.00142208	      0.31674408	     30.69170055	     -5.27564080	     -2.90012411	    -47.85313947	      4.72513139	    -13.57825976	     -0.28597255	     -0.35187520	      8.24441629	      7.74456805	     -3.48045617	      2.39528282	    -12.48352488	     -2.71980338	     -0.80142890	     -1.78925791	      1.78012180
      1.43733333	     -3.63856419	      3.50722040	      2.71023581	      0.34424604	      1.00113429	      0.31670609	     30.85448599	     -5.29009368	     -2.96944202	    -46.53685276	      4.80349025	    -13.56112413	     -0.33900504	     -0.73871884	      8.23281967	      7.81383332	     -3.34236606	      2.57239597	    -12.44711920	     -2.72071713	     -0.83319080	     -1.80345932	      1.70489143
      1.44150000	     -3.66225971	      3.52785428	      2.76615631	      0.34912853	      1.00077804	      0.31667665	     31.02556105	     -5.31479362	     -3.04306788	    -45.19526354	      4.86595664	    -13.52623432	     -0.39032355	     -1.10330493	      8.23425292	      7.88050719	     -3.20708994	      2.74834586	    -12.41599350	     -2.72240274	     -0.84549710	     -1.83109521	      1.63553661
      1.44566667	     -3.67536913	      3.53522491	      2.82144975	      0.35401174	      1.00042776	      0.31665427	     31.15653192	     -5.32233666	     -3.12964330	    -43.80190378	      4.90484217	    -13.48104709	     -0.44267454	     -1.47426108	      8.21964798	      7.93428204	     -3.07904799	      2.92383469	    -12.38023756	     -2.72504544	     -0.86725110	     -1.84303811	      1.56346438
